# xmcd
#
# Track frame offsets:
#	150
#	14273
#	27161
#	42128
#	56468
#	69851
#	83949
#	95910
#	109929
#	123369
#	136274
#	150321
#	164694
#	176509
#
# Disc length: 2530 seconds
#
# Revision: 1
# Processed by: cddbd v1.5.1PL0 Copyright (c) Steve Scherf et al.
# Submitted via: audiograbber 1.82.02
#
DISCID=af09e00e
DTITLE=Various Artist - Country Radio Requests CD 3
DYEAR=1900
DGENRE=Country
TTITLE0=Tex Morton - Rockin Alone in and Old Rocking Chair
TTITLE1=Billy Blinkhorn - Mallman's Warning
TTITLE2=Buddy Williams - Dreaming Of My Mother
TTITLE3=Tex Morton - The Letter Edged In Black
TTITLE4=June Holms - Mother, Pal And Sweetheart
TTITLE5=Donna Reynolds - The Ring My Mother Wore
TTITLE6=Dusty Rankin - Going Back To My Little Western Home
TTITLE7=Buddy Williams - A Mother As Lovely As You
TTITLE8=Smokey Dawson - Mother Please Open The Door
TTITLE9=Tex Morton - You'll Only Have One Mother
TTITLE10=Rick And Thel - Highway Hobo
TTITLE11=Tex Morton - Just Plain Folks
TTITLE12=Gordon Parsons - My Mother In Heaven
TTITLE13=Buddy Williams - A Mothers Plea
EXTD=
EXTT0=
EXTT1=
EXTT2=
EXTT3=
EXTT4=
EXTT5=
EXTT6=
EXTT7=
EXTT8=
EXTT9=
EXTT10=
EXTT11=
EXTT12=
EXTT13=
PLAYORDER=
